<?xml version="1.0" standalone="no"?>
<svg xmlns:xlink="http://www.w3.org/1999/xlink" id="wave" style="transform:rotate(0deg); transition: 0.3s" viewBox="0 0 1440 100" version="1.1" xmlns="http://www.w3.org/2000/svg"><defs><linearGradient id="sw-gradient-0" x1="0" x2="0" y1="1" y2="0"><stop stop-color="rgba(243, 106, 62, 1)" offset="0%"/><stop stop-color="rgba(255, 179, 11, 1)" offset="100%"/></linearGradient></defs><path style="transform:translate(0, 0px); opacity:1" fill="url(#sw-gradient-0)" d="M0,10L21.8,10C43.6,10,87,10,131,21.7C174.5,33,218,57,262,70C305.5,83,349,87,393,80C436.4,73,480,57,524,46.7C567.3,37,611,33,655,35C698.2,37,742,43,785,51.7C829.1,60,873,70,916,63.3C960,57,1004,33,1047,33.3C1090.9,33,1135,57,1178,61.7C1221.8,67,1265,53,1309,45C1352.7,37,1396,33,1440,26.7C1483.6,20,1527,10,1571,13.3C1614.5,17,1658,33,1702,35C1745.5,37,1789,23,1833,25C1876.4,27,1920,43,1964,46.7C2007.3,50,2051,40,2095,36.7C2138.2,33,2182,37,2225,33.3C2269.1,30,2313,20,2356,16.7C2400,13,2444,17,2487,23.3C2530.9,30,2575,40,2618,50C2661.8,60,2705,70,2749,63.3C2792.7,57,2836,33,2880,31.7C2923.6,30,2967,50,3011,58.3C3054.5,67,3098,63,3120,61.7L3141.8,60L3141.8,100L3120,100C3098.2,100,3055,100,3011,100C2967.3,100,2924,100,2880,100C2836.4,100,2793,100,2749,100C2705.5,100,2662,100,2618,100C2574.5,100,2531,100,2487,100C2443.6,100,2400,100,2356,100C2312.7,100,2269,100,2225,100C2181.8,100,2138,100,2095,100C2050.9,100,2007,100,1964,100C1920,100,1876,100,1833,100C1789.1,100,1745,100,1702,100C1658.2,100,1615,100,1571,100C1527.3,100,1484,100,1440,100C1396.4,100,1353,100,1309,100C1265.5,100,1222,100,1178,100C1134.5,100,1091,100,1047,100C1003.6,100,960,100,916,100C872.7,100,829,100,785,100C741.8,100,698,100,655,100C610.9,100,567,100,524,100C480,100,436,100,393,100C349.1,100,305,100,262,100C218.2,100,175,100,131,100C87.3,100,44,100,22,100L0,100Z"/></svg>